<?xml version="1.0" encoding="UTF-8"?>
<svg width="1302px" height="3550px" viewBox="0 0 1302 3550" version="1.1" xmlns="http://www.w3.org/2000/svg" xmlns:xlink="http://www.w3.org/1999/xlink">
    <!-- Generator: Sketch 46.2 (44496) - http://www.bohemiancoding.com/sketch -->
    <title>Slice</title>
    <desc>Created with Sketch.</desc>
    <defs>
        <linearGradient x1="51.5913571%" y1="0%" x2="51.5913546%" y2="50%" id="linearGradient-1">
            <stop stop-color="#080404" offset="0%"></stop>
            <stop stop-color="#580346" offset="25.9786761%"></stop>
            <stop stop-color="#CE01A5" offset="63.1295211%"></stop>
            <stop stop-color="#ED00BE" offset="86.28255%"></stop>
            <stop stop-color="#FF00CD" offset="100%"></stop>
        </linearGradient>
        <filter x="-1.5%" y="-3.4%" width="103.1%" height="107.3%" filterUnits="objectBoundingBox" id="filter-2">
            <feOffset dx="0" dy="2" in="SourceAlpha" result="shadowOffsetOuter1"></feOffset>
            <feGaussianBlur stdDeviation="5.5" in="shadowOffsetOuter1" result="shadowBlurOuter1"></feGaussianBlur>
            <feColorMatrix values="0 0 0 0 0.892299107   0 0 0 0 0.122434112   0 0 0 0 0.122434112  0 0 0 0.5 0" type="matrix" in="shadowBlurOuter1" result="shadowMatrixOuter1"></feColorMatrix>
            <feMerge>
                <feMergeNode in="shadowMatrixOuter1"></feMergeNode>
                <feMergeNode in="SourceGraphic"></feMergeNode>
            </feMerge>
        </filter>
        <radialGradient cx="51.1193752%" cy="61.6251173%" fx="51.1193752%" fy="61.6251173%" r="94.8412838%" gradientTransform="translate(0.511194,0.616251),scale(0.406868,1.000000),rotate(91.614971),translate(-0.511194,-0.616251)" id="radialGradient-3">
            <stop stop-color="#D1ADAD" offset="0%"></stop>
            <stop stop-color="#D20C0C" stop-opacity="0.196557971" offset="100%"></stop>
        </radialGradient>
    </defs>
    <g id="Page-1" stroke="none" stroke-width="1" fill="none" fill-rule="evenodd">
        <rect id="Rectangle" fill="url(#linearGradient-1)" style="mix-blend-mode: darken;" x="0" y="0" width="1302" height="3550"></rect>
        <g id="Group" filter="url(#filter-2)" style="mix-blend-mode: overlay;" transform="translate(48.000000, 57.000000)" stroke="#979797" fill="url(#radialGradient-3)">
            <path d="M53,69.75 L20.6718111,84.1192902 L26.8459458,53.6846451 L0.691891604,32.1307098 L36.8359056,27.6903549 L53,0 L69.1640944,27.6903549 L105.308108,32.1307098 L79.1540542,53.6846451 L85.3281889,84.1192902 L53,69.75 Z M163,69.75 L130.671811,84.1192902 L136.845946,53.6846451 L110.691892,32.1307098 L146.835906,27.6903549 L163,0 L179.164094,27.6903549 L215.308108,32.1307098 L189.154054,53.6846451 L195.328189,84.1192902 L163,69.75 Z M273,69.75 L240.671811,84.1192902 L246.845946,53.6846451 L220.691892,32.1307098 L256.835906,27.6903549 L273,0 L289.164094,27.6903549 L325.308108,32.1307098 L299.154054,53.6846451 L305.328189,84.1192902 L273,69.75 Z M383,69.75 L350.671811,84.1192902 L356.845946,53.6846451 L330.691892,32.1307098 L366.835906,27.6903549 L383,0 L399.164094,27.6903549 L435.308108,32.1307098 L409.154054,53.6846451 L415.328189,84.1192902 L383,69.75 Z M493,69.75 L460.671811,84.1192902 L466.845946,53.6846451 L440.691892,32.1307098 L476.835906,27.6903549 L493,0 L509.164094,27.6903549 L545.308108,32.1307098 L519.154054,53.6846451 L525.328189,84.1192902 L493,69.75 Z M603,69.75 L570.671811,84.1192902 L576.845946,53.6846451 L550.691892,32.1307098 L586.835906,27.6903549 L603,0 L619.164094,27.6903549 L655.308108,32.1307098 L629.154054,53.6846451 L635.328189,84.1192902 L603,69.75 Z M713,69.75 L680.671811,84.1192902 L686.845946,53.6846451 L660.691892,32.1307098 L696.835906,27.6903549 L713,0 L729.164094,27.6903549 L765.308108,32.1307098 L739.154054,53.6846451 L745.328189,84.1192902 L713,69.75 Z M933,69.75 L900.671811,84.1192902 L906.845946,53.6846451 L880.691892,32.1307098 L916.835906,27.6903549 L933,0 L949.164094,27.6903549 L985.308108,32.1307098 L959.154054,53.6846451 L965.328189,84.1192902 L933,69.75 Z M1043,69.75 L1010.67181,84.1192902 L1016.84595,53.6846451 L990.691892,32.1307098 L1026.83591,27.6903549 L1043,0 L1059.16409,27.6903549 L1095.30811,32.1307098 L1069.15405,53.6846451 L1075.32819,84.1192902 L1043,69.75 Z M1153,69.75 L1120.67181,84.1192902 L1126.84595,53.6846451 L1100.69189,32.1307098 L1136.83591,27.6903549 L1153,0 L1169.16409,27.6903549 L1205.30811,32.1307098 L1179.15405,53.6846451 L1185.32819,84.1192902 L1153,69.75 Z M823,69.75 L790.671811,84.1192902 L796.845946,53.6846451 L770.691892,32.1307098 L806.835906,27.6903549 L823,0 L839.164094,27.6903549 L875.308108,32.1307098 L849.154054,53.6846451 L855.328189,84.1192902 L823,69.75 Z M53,211.75 L20.6718111,226.11929 L26.8459458,195.684645 L0.691891604,174.13071 L36.8359056,169.690355 L53,142 L69.1640944,169.690355 L105.308108,174.13071 L79.1540542,195.684645 L85.3281889,226.11929 L53,211.75 Z M163,211.75 L130.671811,226.11929 L136.845946,195.684645 L110.691892,174.13071 L146.835906,169.690355 L163,142 L179.164094,169.690355 L215.308108,174.13071 L189.154054,195.684645 L195.328189,226.11929 L163,211.75 Z M273,211.75 L240.671811,226.11929 L246.845946,195.684645 L220.691892,174.13071 L256.835906,169.690355 L273,142 L289.164094,169.690355 L325.308108,174.13071 L299.154054,195.684645 L305.328189,226.11929 L273,211.75 Z M383,211.75 L350.671811,226.11929 L356.845946,195.684645 L330.691892,174.13071 L366.835906,169.690355 L383,142 L399.164094,169.690355 L435.308108,174.13071 L409.154054,195.684645 L415.328189,226.11929 L383,211.75 Z M493,211.75 L460.671811,226.11929 L466.845946,195.684645 L440.691892,174.13071 L476.835906,169.690355 L493,142 L509.164094,169.690355 L545.308108,174.13071 L519.154054,195.684645 L525.328189,226.11929 L493,211.75 Z M603,211.75 L570.671811,226.11929 L576.845946,195.684645 L550.691892,174.13071 L586.835906,169.690355 L603,142 L619.164094,169.690355 L655.308108,174.13071 L629.154054,195.684645 L635.328189,226.11929 L603,211.75 Z M713,211.75 L680.671811,226.11929 L686.845946,195.684645 L660.691892,174.13071 L696.835906,169.690355 L713,142 L729.164094,169.690355 L765.308108,174.13071 L739.154054,195.684645 L745.328189,226.11929 L713,211.75 Z M933,211.75 L900.671811,226.11929 L906.845946,195.684645 L880.691892,174.13071 L916.835906,169.690355 L933,142 L949.164094,169.690355 L985.308108,174.13071 L959.154054,195.684645 L965.328189,226.11929 L933,211.75 Z M1043,211.75 L1010.67181,226.11929 L1016.84595,195.684645 L990.691892,174.13071 L1026.83591,169.690355 L1043,142 L1059.16409,169.690355 L1095.30811,174.13071 L1069.15405,195.684645 L1075.32819,226.11929 L1043,211.75 Z M1153,211.75 L1120.67181,226.11929 L1126.84595,195.684645 L1100.69189,174.13071 L1136.83591,169.690355 L1153,142 L1169.16409,169.690355 L1205.30811,174.13071 L1179.15405,195.684645 L1185.32819,226.11929 L1153,211.75 Z M823,211.75 L790.671811,226.11929 L796.845946,195.684645 L770.691892,174.13071 L806.835906,169.690355 L823,142 L839.164094,169.690355 L875.308108,174.13071 L849.154054,195.684645 L855.328189,226.11929 L823,211.75 Z M53,333.75 L20.6718111,348.11929 L26.8459458,317.684645 L0.691891604,296.13071 L36.8359056,291.690355 L53,264 L69.1640944,291.690355 L105.308108,296.13071 L79.1540542,317.684645 L85.3281889,348.11929 L53,333.75 Z M163,333.75 L130.671811,348.11929 L136.845946,317.684645 L110.691892,296.13071 L146.835906,291.690355 L163,264 L179.164094,291.690355 L215.308108,296.13071 L189.154054,317.684645 L195.328189,348.11929 L163,333.75 Z M273,333.75 L240.671811,348.11929 L246.845946,317.684645 L220.691892,296.13071 L256.835906,291.690355 L273,264 L289.164094,291.690355 L325.308108,296.13071 L299.154054,317.684645 L305.328189,348.11929 L273,333.75 Z M383,333.75 L350.671811,348.11929 L356.845946,317.684645 L330.691892,296.13071 L366.835906,291.690355 L383,264 L399.164094,291.690355 L435.308108,296.13071 L409.154054,317.684645 L415.328189,348.11929 L383,333.75 Z M493,333.75 L460.671811,348.11929 L466.845946,317.684645 L440.691892,296.13071 L476.835906,291.690355 L493,264 L509.164094,291.690355 L545.308108,296.13071 L519.154054,317.684645 L525.328189,348.11929 L493,333.75 Z M603,333.75 L570.671811,348.11929 L576.845946,317.684645 L550.691892,296.13071 L586.835906,291.690355 L603,264 L619.164094,291.690355 L655.308108,296.13071 L629.154054,317.684645 L635.328189,348.11929 L603,333.75 Z M713,333.75 L680.671811,348.11929 L686.845946,317.684645 L660.691892,296.13071 L696.835906,291.690355 L713,264 L729.164094,291.690355 L765.308108,296.13071 L739.154054,317.684645 L745.328189,348.11929 L713,333.75 Z M933,333.75 L900.671811,348.11929 L906.845946,317.684645 L880.691892,296.13071 L916.835906,291.690355 L933,264 L949.164094,291.690355 L985.308108,296.13071 L959.154054,317.684645 L965.328189,348.11929 L933,333.75 Z M1043,333.75 L1010.67181,348.11929 L1016.84595,317.684645 L990.691892,296.13071 L1026.83591,291.690355 L1043,264 L1059.16409,291.690355 L1095.30811,296.13071 L1069.15405,317.684645 L1075.32819,348.11929 L1043,333.75 Z M1153,333.75 L1120.67181,348.11929 L1126.84595,317.684645 L1100.69189,296.13071 L1136.83591,291.690355 L1153,264 L1169.16409,291.690355 L1205.30811,296.13071 L1179.15405,317.684645 L1185.32819,348.11929 L1153,333.75 Z M823,333.75 L790.671811,348.11929 L796.845946,317.684645 L770.691892,296.13071 L806.835906,291.690355 L823,264 L839.164094,291.690355 L875.308108,296.13071 L849.154054,317.684645 L855.328189,348.11929 L823,333.75 Z M53,475.75 L20.6718111,490.11929 L26.8459458,459.684645 L0.691891604,438.13071 L36.8359056,433.690355 L53,406 L69.1640944,433.690355 L105.308108,438.13071 L79.1540542,459.684645 L85.3281889,490.11929 L53,475.75 Z M163,475.75 L130.671811,490.11929 L136.845946,459.684645 L110.691892,438.13071 L146.835906,433.690355 L163,406 L179.164094,433.690355 L215.308108,438.13071 L189.154054,459.684645 L195.328189,490.11929 L163,475.75 Z M273,475.75 L240.671811,490.11929 L246.845946,459.684645 L220.691892,438.13071 L256.835906,433.690355 L273,406 L289.164094,433.690355 L325.308108,438.13071 L299.154054,459.684645 L305.328189,490.11929 L273,475.75 Z M383,475.75 L350.671811,490.11929 L356.845946,459.684645 L330.691892,438.13071 L366.835906,433.690355 L383,406 L399.164094,433.690355 L435.308108,438.13071 L409.154054,459.684645 L415.328189,490.11929 L383,475.75 Z M493,475.75 L460.671811,490.11929 L466.845946,459.684645 L440.691892,438.13071 L476.835906,433.690355 L493,406 L509.164094,433.690355 L545.308108,438.13071 L519.154054,459.684645 L525.328189,490.11929 L493,475.75 Z M603,475.75 L570.671811,490.11929 L576.845946,459.684645 L550.691892,438.13071 L586.835906,433.690355 L603,406 L619.164094,433.690355 L655.308108,438.13071 L629.154054,459.684645 L635.328189,490.11929 L603,475.75 Z M713,475.75 L680.671811,490.11929 L686.845946,459.684645 L660.691892,438.13071 L696.835906,433.690355 L713,406 L729.164094,433.690355 L765.308108,438.13071 L739.154054,459.684645 L745.328189,490.11929 L713,475.75 Z M933,475.75 L900.671811,490.11929 L906.845946,459.684645 L880.691892,438.13071 L916.835906,433.690355 L933,406 L949.164094,433.690355 L985.308108,438.13071 L959.154054,459.684645 L965.328189,490.11929 L933,475.75 Z M1043,475.75 L1010.67181,490.11929 L1016.84595,459.684645 L990.691892,438.13071 L1026.83591,433.690355 L1043,406 L1059.16409,433.690355 L1095.30811,438.13071 L1069.15405,459.684645 L1075.32819,490.11929 L1043,475.75 Z M1153,475.75 L1120.67181,490.11929 L1126.84595,459.684645 L1100.69189,438.13071 L1136.83591,433.690355 L1153,406 L1169.16409,433.690355 L1205.30811,438.13071 L1179.15405,459.684645 L1185.32819,490.11929 L1153,475.75 Z M823,475.75 L790.671811,490.11929 L796.845946,459.684645 L770.691892,438.13071 L806.835906,433.690355 L823,406 L839.164094,433.690355 L875.308108,438.13071 L849.154054,459.684645 L855.328189,490.11929 L823,475.75 Z" id="Combined-Shape"></path>
        </g>
    </g>
</svg>